<svg width="361" height="361" viewBox="0 0 361 361" fill="none" xmlns="http://www.w3.org/2000/svg">
<path fill-rule="evenodd" clip-rule="evenodd" d="M180.5 361C280.187 361 361 280.187 361 180.5C361 80.8126 280.187 0 180.5 0C80.8126 0 0 80.8126 0 180.5C0 280.187 80.8126 361 180.5 361ZM179.593 94.9242C204.827 94.9242 230.264 97.0117 245.363 112.151V112.149C253.788 120.599 258.043 132.366 258.003 147.123C258.003 192.434 219.589 203.904 203.075 206.729C196.03 207.979 186.27 208.821 178.805 208.821C176.113 208.821 171.715 208.359 167.778 207.864V266.076H131.442V163.78L135.744 168.252C135.894 168.405 151.336 183.914 183.293 183.914C208.737 183.914 221.107 173.012 221.107 150.583C221.107 124.688 204.377 119.384 179.258 119.384C174.813 119.384 170.655 119.716 167.781 120.021V167.087L165.038 166.822C143.896 164.78 132.277 145.593 131.792 144.778L131.442 144.188V95.4617L136.354 95.3742C136.584 95.3692 162.151 94.9242 179.593 94.9242Z" fill="black"/>
</svg>
